<svg width="675" height="715" viewBox="0 0 675 715" fill="none" xmlns="http://www.w3.org/2000/svg">
<path d="M663.132 711.027C660.164 709.281 644.191 701.076 627.78 692.696C593.738 675.5 586.58 671.485 571.218 661.272C534.993 637.006 483.842 590.132 452.156 551.987C431.469 527.197 414.098 493.853 407.552 466.706C405.981 459.985 405.544 455.621 405.195 443.837C404.933 435.719 404.933 427.601 405.282 425.593C405.719 422.364 406.068 422.014 408.075 421.753C410.258 421.491 409.909 421.054 400.394 412.762C365.828 382.385 354.742 373.22 342.085 364.142C336.673 360.302 329.516 354.366 326.199 351.049C320.525 345.462 320.089 344.764 320.089 341.884C320.089 338.829 320.176 338.654 322.533 338.654C326.897 338.654 359.281 345.724 365.653 348.081C380.667 353.493 401.703 369.816 413.138 384.83C414.884 387.012 416.368 388.758 416.542 388.583C417.153 387.972 408.512 366.674 403.1 355.501C399.958 349.041 394.633 339.178 391.229 333.504C374.906 306.357 368.097 288.725 368.01 272.402V267.077H370.629C372.898 267.077 373.597 267.688 377.35 272.926C381.714 279.123 394.109 293.089 396.815 295.01L398.386 296.145L396.903 287.765C396.117 283.139 395.506 278.25 395.506 276.854C395.506 275.544 395.244 273.799 395.069 273.188C394.458 271.442 380.929 264.022 372.287 260.618C364.519 257.563 362.511 257.214 362.511 258.872C362.511 260.094 354.655 262.015 342.085 263.673C329.69 265.332 322.533 267.863 313.28 273.973C307.519 277.639 304.9 279.036 302.893 279.036H300.1L300.536 274.41C301.845 261.666 310.749 249.707 321.049 246.827C323.318 246.216 327.683 245.954 333.095 246.216C340.602 246.565 342.435 246.914 349.854 249.794C357.186 252.588 358.146 252.762 358.321 251.54C358.496 250.842 360.329 249.445 362.685 248.31C366.264 246.739 367.923 246.477 377.35 246.477C385.904 246.477 388.436 246.739 390.443 247.787L392.887 249.183L392.451 239.931C391.229 213.744 398.212 190.962 413.4 171.409L415.495 168.616L405.108 146.445C399.347 134.224 393.236 121.742 391.403 118.687C370.978 84.2955 325.064 51.6496 282.031 40.9131C252.091 33.4063 227.301 34.6283 197.099 44.9284C181.387 50.253 151.447 66.0522 138.354 75.8285C135.299 78.1853 126.832 85.6921 119.674 92.5006C104.923 106.467 97.8523 112.053 89.8218 115.981C82.6641 119.473 76.2921 121.044 69.2217 121.044H63.4607V118.338C63.4607 115.981 63.8971 115.457 66.9522 113.624C71.6658 110.831 80.8311 101.491 85.0209 95.2065C86.9412 92.326 90.9565 85.1684 94.0989 79.32C102.566 63.4335 107.629 56.2759 116.881 47.1106C139.402 24.5029 179.467 6.25959 217.525 1.02228C227.388 -0.199757 253.837 -0.374337 265.97 0.760413C313.018 5.3867 358.758 24.4156 387.126 51.2131C405.544 68.6708 416.804 88.7472 420.82 111.355C422.391 120.346 423.002 141.382 422.042 154.737C421.605 160.586 421.605 165.474 422.042 165.561C422.915 165.997 422.827 178.829 421.867 188.518C420.82 198.381 421.431 203.444 426.231 222.298C431.207 242.288 431.731 246.216 431.643 261.229C431.556 275.544 430.683 283.051 426.319 307.143L423.613 321.633L427.803 326.521C449.363 351.922 453.989 395.304 439.848 438.774C437.317 446.281 437.23 446.368 434.873 446.368C432.778 446.368 431.731 445.495 427.541 440.345C424.922 436.941 420.034 431.529 416.717 428.299L410.694 422.364L415.059 430.656C424.922 449.51 461.06 503.629 480.438 528.506C511.774 568.834 529.756 585.855 584.66 627.579C628.915 661.185 648.468 678.468 665.664 699.155C672.734 707.535 674.218 709.805 674.218 711.899C674.218 714.344 674.043 714.518 671.337 714.431C669.33 714.431 666.536 713.296 662.87 711.201L663.132 711.027Z" fill="black"></path>
<path d="M18.5924 558.536C17.545 555.132 16.4102 547.101 15.9738 540.205C15.5373 530.778 16.4102 524.755 19.7272 517.772L22.084 512.622L19.4653 515.154C14.4026 519.954 6.19748 524.843 2.96781 524.843C0.174578 524.843 0 524.755 0 522.224C0 520.478 0.61102 518.994 1.65848 518.034C3.84069 516.027 9.68901 506.599 12.4822 500.227C17.4577 489.316 19.8145 477.707 21.5602 453.964C25.2264 407.352 33.0823 324.603 35.4391 308.891C38.2323 289.513 43.2078 270.571 48.0959 260.97C49.318 258.7 49.6671 256.605 49.5798 253.114C49.4925 250.495 50.0163 246.567 50.54 244.298L51.6748 240.195L49.4926 241.417C48.2705 242.028 46.1756 242.552 44.8663 242.552C42.6841 242.552 42.5095 242.29 42.5095 239.759C42.5095 238.275 43.2078 235.22 44.168 232.95C48.8815 220.992 50.6273 212.35 53.5078 186.338C55.8646 165.563 57.1739 157.62 59.3561 151.51C61.8002 144.789 65.8155 138.329 70.7036 133.441C75.0681 129.077 76.0282 128.553 78.8215 128.553C81.6147 128.553 81.8766 128.728 81.8766 130.735C81.8766 131.957 81.4401 134.314 81.091 135.973C79.8689 140.773 80.0435 151.51 81.5274 162.77C83.3605 177.26 82.7494 191.052 79.8689 200.042C76.1155 211.914 69.7435 223.086 62.324 230.942C60.229 233.125 59.7926 233.823 60.8401 233.823C61.9748 233.823 62.1494 234.609 62.1494 237.751C62.1494 241.242 62.4112 241.679 63.8079 241.679C65.3791 241.679 65.3791 241.941 64.9426 251.368C64.5935 256.867 64.9426 273.015 65.6409 289.077C67.6486 333.594 67.2121 362.835 64.157 385.967C60.4909 414.423 50.3654 460.86 44.3425 477.096C41.5493 484.865 35.2645 496.736 31.0747 502.235C27.5831 506.861 27.5831 506.949 29.5035 507.21C31.162 507.472 31.5111 507.996 32.1221 511.138C32.4713 513.146 32.7332 520.216 32.6459 526.588C32.5586 539.944 31.5111 545.443 27.4086 553.735C25.0518 558.536 24.7026 558.885 21.9094 559.06C19.9891 559.234 18.8543 558.972 18.6797 558.274L18.5924 558.536Z" fill="black"></path>
</svg>